<?xml version="1.0" encoding="UTF-8"?>
<svg id="Layer_1" xmlns="http://www.w3.org/2000/svg" version="1.1" viewBox="0 0 419.38 158.28">
  <!-- Generator: Adobe Illustrator 29.7.1, SVG Export Plug-In . SVG Version: 2.1.1 Build 8)  -->
  <defs>
    <style>
      .st0 {
        fill: #231f20;
      }
    </style>
  </defs>
  <g>
    <g>
      <path class="st0" d="M196.74,63.25l-10.61,33.17h-11.99l-5.35-17.72-5.64,17.72h-11.99l-10.61-33.17h11.51l5.78,18.86,6.11-18.86h10.28l5.78,19.09,6.11-19.09h10.61Z"/>
      <path class="st0" d="M194.57,79.83c0-10.04,7.91-17.34,18.71-17.34s18.71,7.3,18.71,17.34-7.91,17.34-18.71,17.34-18.71-7.3-18.71-17.34ZM220.72,79.83c0-5.17-3.32-8.29-7.44-8.29s-7.44,3.13-7.44,8.29,3.32,8.29,7.44,8.29,7.44-3.13,7.44-8.29Z"/>
      <path class="st0" d="M249.34,88.07h-3.03v8.34h-11.18v-33.17h15.97c9.24,0,15.11,4.83,15.11,12.51,0,4.79-2.27,8.39-6.25,10.42l6.96,10.23h-11.94l-5.64-8.34ZM250.38,71.87h-4.07v7.77h4.07c3.08,0,4.55-1.47,4.55-3.88s-1.47-3.88-4.55-3.88Z"/>
      <path class="st0" d="M282.98,85.42l-2.51,2.8v8.2h-10.99v-33.17h10.99v12.03l10.9-12.03h12.18l-13.27,14.59,13.93,18.57h-12.93l-8.29-10.99Z"/>
      <path class="st0" d="M303.88,93.76l3.6-8.15c3.13,1.85,7.29,3.03,10.94,3.03,3.18,0,4.31-.66,4.31-1.8,0-4.17-18.34-.81-18.34-13.17,0-6.16,5.16-11.18,15.45-11.18,4.45,0,9.05.95,12.51,2.89l-3.36,8.1c-3.27-1.66-6.35-2.46-9.24-2.46-3.27,0-4.31.95-4.31,2.08,0,3.98,18.34.66,18.34,12.89,0,6.06-5.16,11.18-15.45,11.18-5.54,0-11.13-1.37-14.45-3.41Z"/>
      <path class="st0" d="M346.76,66.28h-11.66v-3.03h26.82v3.03h-11.65v30.13h-3.51v-30.13Z"/>
      <path class="st0" d="M365.09,79.83c0-9.67,7.39-16.87,17.44-16.87s17.39,7.15,17.39,16.87-7.44,16.87-17.39,16.87-17.44-7.2-17.44-16.87ZM396.41,79.83c0-7.91-5.92-13.74-13.88-13.74s-13.98,5.83-13.98,13.74,5.97,13.74,13.98,13.74,13.88-5.83,13.88-13.74Z"/>
    </g>
    <path class="st0" d="M91.31,71.36h-4.07v7.77h4.07c3.08,0,4.55-1.47,4.55-3.88s-1.47-3.89-4.55-3.89Z"/>
    <path class="st0" d="M129.47,95.91h-11.18v-24.5h-9.71v-8.67h27.92c-7.12-24.97-30.11-43.26-57.37-43.26-32.95,0-59.66,26.71-59.66,59.66s26.71,59.66,59.66,59.66,59.66-26.71,59.66-59.66c0-2.62-.17-5.2-.5-7.73h-8.81v24.5ZM63.36,95.91l-2.23-5.78h-12.6l-2.23,5.78h-11.37l14.5-33.17h10.99l14.5,33.17h-11.56ZM95.91,95.91l-5.64-8.34h-3.03v8.34h-11.18v-33.17h15.97c9.24,0,15.11,4.83,15.11,12.51,0,4.79-2.27,8.39-6.25,10.42l6.96,10.23h-11.94Z"/>
    <polygon class="st0" points="51.61 82.07 58.06 82.07 54.83 73.73 51.61 82.07"/>
  </g>
  <g>
    <path class="st0" d="M260.55,113.83v3.98h-1.63v-4.02l-4.58-7.51h1.76l3.69,6.08,3.7-6.08h1.63l-4.58,7.54Z"/>
    <path class="st0" d="M265.19,112.06c0-3.38,2.6-5.89,6.14-5.89s6.11,2.5,6.11,5.89-2.6,5.89-6.11,5.89-6.14-2.52-6.14-5.89ZM275.79,112.06c0-2.55-1.91-4.43-4.46-4.43s-4.5,1.88-4.5,4.43,1.91,4.43,4.5,4.43,4.46-1.88,4.46-4.43Z"/>
    <path class="st0" d="M279.21,112.85v-6.55h1.65v6.49c0,2.55,1.17,3.7,3.24,3.7s3.26-1.15,3.26-3.7v-6.49h1.6v6.55c0,3.34-1.83,5.1-4.87,5.1s-4.87-1.76-4.87-5.1Z"/>
    <path class="st0" d="M293.96,107.72h-3.95v-1.43h9.53v1.43h-3.95v10.09h-1.63v-10.09Z"/>
    <path class="st0" d="M310.59,106.29v11.53h-1.65v-5.14h-6.62v5.14h-1.65v-11.53h1.65v4.96h6.62v-4.96h1.65Z"/>
    <path class="st0" d="M326.47,110.31c0,2.5-1.81,4.02-4.81,4.02h-2.85v3.49h-1.65v-11.53h4.5c3,0,4.81,1.52,4.81,4.02ZM324.82,110.31c0-1.65-1.1-2.58-3.21-2.58h-2.8v5.17h2.8c2.11,0,3.21-.94,3.21-2.58Z"/>
    <path class="st0" d="M336.1,117.82l-2.49-3.54c-.23.02-.48.03-.72.03h-2.85v3.51h-1.65v-11.53h4.5c3,0,4.81,1.52,4.81,4.02,0,1.78-.92,3.06-2.54,3.64l2.73,3.87h-1.79ZM336.05,110.31c0-1.65-1.1-2.58-3.21-2.58h-2.8v5.19h2.8c2.11,0,3.21-.96,3.21-2.6Z"/>
    <path class="st0" d="M338.77,112.06c0-3.38,2.6-5.89,6.14-5.89s6.11,2.5,6.11,5.89-2.6,5.89-6.11,5.89-6.14-2.52-6.14-5.89ZM349.38,112.06c0-2.55-1.91-4.43-4.46-4.43s-4.5,1.88-4.5,4.43,1.91,4.43,4.5,4.43,4.46-1.88,4.46-4.43Z"/>
    <path class="st0" d="M360.87,111.99h1.58v4.49c-1.15.97-2.75,1.47-4.36,1.47-3.54,0-6.14-2.49-6.14-5.89s2.6-5.89,6.17-5.89c1.83,0,3.38.61,4.43,1.78l-1.02,1.02c-.95-.92-2.04-1.33-3.34-1.33-2.67,0-4.59,1.86-4.59,4.43s1.93,4.43,4.58,4.43c.97,0,1.88-.21,2.7-.74v-3.75Z"/>
    <path class="st0" d="M372.65,117.82l-2.49-3.54c-.23.02-.48.03-.72.03h-2.85v3.51h-1.65v-11.53h4.5c3,0,4.81,1.52,4.81,4.02,0,1.78-.92,3.06-2.54,3.64l2.73,3.87h-1.79ZM372.6,110.31c0-1.65-1.1-2.58-3.21-2.58h-2.8v5.19h2.8c2.11,0,3.21-.96,3.21-2.6Z"/>
    <path class="st0" d="M383.6,114.94h-6.12l-1.27,2.88h-1.7l5.22-11.53h1.63l5.24,11.53h-1.73l-1.27-2.88ZM383.02,113.62l-2.49-5.65-2.49,5.65h4.97Z"/>
    <path class="st0" d="M398.34,117.82l-.02-8.4-4.17,7h-.76l-4.17-6.95v8.35h-1.58v-11.53h1.35l4.81,8.1,4.74-8.1h1.35l.02,11.53h-1.58Z"/>
  </g>
</svg>